<mxfile host="app.diagrams.net" agent="Mozilla/5.0 (X11; Linux x86_64) AppleWebKit/537.36 (KHTML, like Gecko) Chrome/132.0.0.0 Safari/537.36" version="26.0.16">
  <diagram name="Page-1" id="oGkIV_dfNjzydlTz839y">
    <mxGraphModel dx="2843" dy="915" grid="1" gridSize="10" guides="1" tooltips="1" connect="1" arrows="1" fold="1" page="1" pageScale="1" pageWidth="1169" pageHeight="827" math="0" shadow="0">
      <root>
        <mxCell id="0" />
        <mxCell id="1" parent="0" />
        <mxCell id="GOJ1Bf2PkO9zfcrBrseA-4" value="" style="rounded=0;whiteSpace=wrap;html=1;strokeColor=none;" parent="1" vertex="1">
          <mxGeometry x="-943" y="142" width="821" height="407" as="geometry" />
        </mxCell>
        <mxCell id="AU-f3QZ6R0njnLNmo8if-11" style="edgeStyle=orthogonalEdgeStyle;rounded=0;orthogonalLoop=1;jettySize=auto;html=1;exitX=1;exitY=0.5;exitDx=0;exitDy=0;" parent="1" source="AU-f3QZ6R0njnLNmo8if-3" edge="1">
          <mxGeometry relative="1" as="geometry">
            <mxPoint x="-746" y="298" as="targetPoint" />
            <Array as="points">
              <mxPoint x="-786" y="183" />
              <mxPoint x="-786" y="298" />
            </Array>
          </mxGeometry>
        </mxCell>
        <mxCell id="AU-f3QZ6R0njnLNmo8if-3" value="Emergency Department" style="rounded=1;whiteSpace=wrap;html=1;fillColor=#D5E8D4;strokeColor=#82B366;" parent="1" vertex="1">
          <mxGeometry x="-936" y="163" width="120" height="50" as="geometry" />
        </mxCell>
        <mxCell id="AU-f3QZ6R0njnLNmo8if-12" style="edgeStyle=orthogonalEdgeStyle;rounded=0;orthogonalLoop=1;jettySize=auto;html=1;exitX=1;exitY=0.5;exitDx=0;exitDy=0;" parent="1" source="AU-f3QZ6R0njnLNmo8if-4" edge="1">
          <mxGeometry relative="1" as="geometry">
            <mxPoint x="-746" y="298" as="targetPoint" />
            <Array as="points">
              <mxPoint x="-786" y="243" />
              <mxPoint x="-786" y="298" />
            </Array>
          </mxGeometry>
        </mxCell>
        <mxCell id="AU-f3QZ6R0njnLNmo8if-4" value="Emergency surgery" style="rounded=1;whiteSpace=wrap;html=1;fillColor=#D5E8D4;strokeColor=#82B366;" parent="1" vertex="1">
          <mxGeometry x="-936" y="218" width="120" height="50" as="geometry" />
        </mxCell>
        <mxCell id="AU-f3QZ6R0njnLNmo8if-13" style="edgeStyle=orthogonalEdgeStyle;rounded=0;orthogonalLoop=1;jettySize=auto;html=1;exitX=1;exitY=0.5;exitDx=0;exitDy=0;" parent="1" source="AU-f3QZ6R0njnLNmo8if-5" edge="1">
          <mxGeometry relative="1" as="geometry">
            <mxPoint x="-746" y="298" as="targetPoint" />
            <Array as="points" />
          </mxGeometry>
        </mxCell>
        <mxCell id="AU-f3QZ6R0njnLNmo8if-5" value="In-patient ward" style="rounded=1;whiteSpace=wrap;html=1;fillColor=#D5E8D4;strokeColor=#82B366;" parent="1" vertex="1">
          <mxGeometry x="-936" y="273" width="120" height="50" as="geometry" />
        </mxCell>
        <mxCell id="AU-f3QZ6R0njnLNmo8if-14" style="edgeStyle=orthogonalEdgeStyle;rounded=0;orthogonalLoop=1;jettySize=auto;html=1;exitX=1;exitY=0.5;exitDx=0;exitDy=0;" parent="1" source="AU-f3QZ6R0njnLNmo8if-6" edge="1">
          <mxGeometry relative="1" as="geometry">
            <mxPoint x="-746" y="298" as="targetPoint" />
            <Array as="points">
              <mxPoint x="-786" y="353" />
              <mxPoint x="-786" y="298" />
            </Array>
          </mxGeometry>
        </mxCell>
        <mxCell id="AU-f3QZ6R0njnLNmo8if-6" value="X-ray department" style="rounded=1;whiteSpace=wrap;html=1;fillColor=#D5E8D4;strokeColor=#82B366;" parent="1" vertex="1">
          <mxGeometry x="-936" y="328" width="120" height="50" as="geometry" />
        </mxCell>
        <mxCell id="AU-f3QZ6R0njnLNmo8if-15" style="edgeStyle=orthogonalEdgeStyle;rounded=0;orthogonalLoop=1;jettySize=auto;html=1;exitX=1;exitY=0.5;exitDx=0;exitDy=0;" parent="1" source="AU-f3QZ6R0njnLNmo8if-7" edge="1">
          <mxGeometry relative="1" as="geometry">
            <mxPoint x="-746" y="298" as="targetPoint" />
            <Array as="points">
              <mxPoint x="-786" y="408" />
              <mxPoint x="-786" y="298" />
            </Array>
          </mxGeometry>
        </mxCell>
        <mxCell id="AU-f3QZ6R0njnLNmo8if-7" value="Hospital transfer" style="rounded=1;whiteSpace=wrap;html=1;fillColor=#D5E8D4;strokeColor=#82B366;" parent="1" vertex="1">
          <mxGeometry x="-936" y="383" width="120" height="50" as="geometry" />
        </mxCell>
        <mxCell id="AU-f3QZ6R0njnLNmo8if-33" style="edgeStyle=orthogonalEdgeStyle;rounded=0;orthogonalLoop=1;jettySize=auto;html=1;exitX=1;exitY=0.5;exitDx=0;exitDy=0;entryX=0;entryY=0.5;entryDx=0;entryDy=0;" parent="1" source="AU-f3QZ6R0njnLNmo8if-8" target="AU-f3QZ6R0njnLNmo8if-32" edge="1">
          <mxGeometry relative="1" as="geometry" />
        </mxCell>
        <mxCell id="AU-f3QZ6R0njnLNmo8if-8" value="Elective surgery" style="rounded=1;whiteSpace=wrap;html=1;fillColor=#d5e8d4;strokeColor=#82b366;" parent="1" vertex="1">
          <mxGeometry x="-936" y="477" width="120" height="50" as="geometry" />
        </mxCell>
        <mxCell id="AU-f3QZ6R0njnLNmo8if-9" value="Critical care" style="rounded=0;whiteSpace=wrap;html=1;fillColor=#dae8fc;strokeColor=#6c8ebf;" parent="1" vertex="1">
          <mxGeometry x="-670" y="268" width="120" height="60" as="geometry" />
        </mxCell>
        <mxCell id="AU-f3QZ6R0njnLNmo8if-47" style="edgeStyle=orthogonalEdgeStyle;rounded=0;orthogonalLoop=1;jettySize=auto;html=1;exitX=0;exitY=0.5;exitDx=0;exitDy=0;entryX=0;entryY=0;entryDx=0;entryDy=0;curved=1;dashed=1;" parent="1" source="AU-f3QZ6R0njnLNmo8if-10" target="AU-f3QZ6R0njnLNmo8if-9" edge="1">
          <mxGeometry relative="1" as="geometry" />
        </mxCell>
        <mxCell id="AU-f3QZ6R0njnLNmo8if-50" value="SEIZE" style="edgeLabel;html=1;align=center;verticalAlign=middle;resizable=0;points=[];" parent="AU-f3QZ6R0njnLNmo8if-47" vertex="1" connectable="0">
          <mxGeometry x="-0.2212" y="14" relative="1" as="geometry">
            <mxPoint x="-14" y="-14" as="offset" />
          </mxGeometry>
        </mxCell>
        <mxCell id="AU-f3QZ6R0njnLNmo8if-10" value="Critical care bed" style="ellipse;whiteSpace=wrap;html=1;aspect=fixed;fillColor=#f8cecc;strokeColor=#b85450;" parent="1" vertex="1">
          <mxGeometry x="-486" y="148" width="80" height="80" as="geometry" />
        </mxCell>
        <mxCell id="AU-f3QZ6R0njnLNmo8if-41" style="edgeStyle=orthogonalEdgeStyle;rounded=0;orthogonalLoop=1;jettySize=auto;html=1;exitX=1;exitY=0.5;exitDx=0;exitDy=0;entryX=0;entryY=0.5;entryDx=0;entryDy=0;" parent="1" source="GOJ1Bf2PkO9zfcrBrseA-2" target="AU-f3QZ6R0njnLNmo8if-40" edge="1">
          <mxGeometry relative="1" as="geometry">
            <mxPoint x="-336" y="298" as="sourcePoint" />
          </mxGeometry>
        </mxCell>
        <mxCell id="AU-f3QZ6R0njnLNmo8if-17" style="edgeStyle=orthogonalEdgeStyle;rounded=0;orthogonalLoop=1;jettySize=auto;html=1;exitX=1;exitY=0.5;exitDx=0;exitDy=0;entryX=0;entryY=0.5;entryDx=0;entryDy=0;" parent="1" source="AU-f3QZ6R0njnLNmo8if-9" target="GOJ1Bf2PkO9zfcrBrseA-2" edge="1">
          <mxGeometry relative="1" as="geometry">
            <mxPoint x="-456" y="298" as="targetPoint" />
          </mxGeometry>
        </mxCell>
        <mxCell id="AU-f3QZ6R0njnLNmo8if-31" value="" style="group" parent="1" vertex="1" connectable="0">
          <mxGeometry x="-750" y="278" width="80" height="40" as="geometry" />
        </mxCell>
        <mxCell id="AU-f3QZ6R0njnLNmo8if-21" value="" style="endArrow=none;html=1;rounded=0;entryX=1;entryY=0;entryDx=0;entryDy=0;" parent="AU-f3QZ6R0njnLNmo8if-31" edge="1">
          <mxGeometry width="50" height="50" relative="1" as="geometry">
            <mxPoint as="sourcePoint" />
            <mxPoint x="80" as="targetPoint" />
          </mxGeometry>
        </mxCell>
        <mxCell id="AU-f3QZ6R0njnLNmo8if-22" value="" style="endArrow=none;html=1;rounded=0;entryX=1;entryY=0;entryDx=0;entryDy=0;" parent="AU-f3QZ6R0njnLNmo8if-31" edge="1">
          <mxGeometry width="50" height="50" relative="1" as="geometry">
            <mxPoint y="40" as="sourcePoint" />
            <mxPoint x="80" y="40" as="targetPoint" />
          </mxGeometry>
        </mxCell>
        <mxCell id="AU-f3QZ6R0njnLNmo8if-23" value="" style="endArrow=none;html=1;rounded=0;entryX=1;entryY=1;entryDx=0;entryDy=0;" parent="AU-f3QZ6R0njnLNmo8if-31" edge="1">
          <mxGeometry width="50" height="50" relative="1" as="geometry">
            <mxPoint x="80" as="sourcePoint" />
            <mxPoint x="80" y="40" as="targetPoint" />
          </mxGeometry>
        </mxCell>
        <mxCell id="AU-f3QZ6R0njnLNmo8if-24" value="" style="endArrow=none;html=1;rounded=0;" parent="AU-f3QZ6R0njnLNmo8if-31" edge="1">
          <mxGeometry width="50" height="50" relative="1" as="geometry">
            <mxPoint x="70" y="40" as="sourcePoint" />
            <mxPoint x="70" as="targetPoint" />
          </mxGeometry>
        </mxCell>
        <mxCell id="AU-f3QZ6R0njnLNmo8if-25" value="" style="endArrow=none;html=1;rounded=0;" parent="AU-f3QZ6R0njnLNmo8if-31" edge="1">
          <mxGeometry width="50" height="50" relative="1" as="geometry">
            <mxPoint x="60" y="40" as="sourcePoint" />
            <mxPoint x="60" as="targetPoint" />
          </mxGeometry>
        </mxCell>
        <mxCell id="AU-f3QZ6R0njnLNmo8if-26" value="" style="endArrow=none;html=1;rounded=0;" parent="AU-f3QZ6R0njnLNmo8if-31" edge="1">
          <mxGeometry width="50" height="50" relative="1" as="geometry">
            <mxPoint x="50" y="40" as="sourcePoint" />
            <mxPoint x="50" as="targetPoint" />
          </mxGeometry>
        </mxCell>
        <mxCell id="AU-f3QZ6R0njnLNmo8if-27" value="" style="endArrow=none;html=1;rounded=0;" parent="AU-f3QZ6R0njnLNmo8if-31" edge="1">
          <mxGeometry width="50" height="50" relative="1" as="geometry">
            <mxPoint x="40" y="40" as="sourcePoint" />
            <mxPoint x="40" as="targetPoint" />
          </mxGeometry>
        </mxCell>
        <mxCell id="AU-f3QZ6R0njnLNmo8if-28" value="" style="endArrow=none;html=1;rounded=0;" parent="AU-f3QZ6R0njnLNmo8if-31" edge="1">
          <mxGeometry width="50" height="50" relative="1" as="geometry">
            <mxPoint x="30" y="40" as="sourcePoint" />
            <mxPoint x="30" as="targetPoint" />
          </mxGeometry>
        </mxCell>
        <mxCell id="AU-f3QZ6R0njnLNmo8if-29" value="" style="endArrow=none;html=1;rounded=0;" parent="AU-f3QZ6R0njnLNmo8if-31" edge="1">
          <mxGeometry width="50" height="50" relative="1" as="geometry">
            <mxPoint x="20" y="40" as="sourcePoint" />
            <mxPoint x="20" as="targetPoint" />
          </mxGeometry>
        </mxCell>
        <mxCell id="AU-f3QZ6R0njnLNmo8if-30" value="" style="endArrow=none;html=1;rounded=0;" parent="AU-f3QZ6R0njnLNmo8if-31" edge="1">
          <mxGeometry width="50" height="50" relative="1" as="geometry">
            <mxPoint x="10" y="40" as="sourcePoint" />
            <mxPoint x="10" as="targetPoint" />
          </mxGeometry>
        </mxCell>
        <mxCell id="AU-f3QZ6R0njnLNmo8if-35" value="Yes = enter service" style="edgeStyle=orthogonalEdgeStyle;rounded=0;orthogonalLoop=1;jettySize=auto;html=1;exitX=0.5;exitY=0;exitDx=0;exitDy=0;entryX=0.5;entryY=1;entryDx=0;entryDy=0;" parent="1" source="AU-f3QZ6R0njnLNmo8if-32" target="AU-f3QZ6R0njnLNmo8if-9" edge="1">
          <mxGeometry relative="1" as="geometry" />
        </mxCell>
        <mxCell id="AU-f3QZ6R0njnLNmo8if-36" style="edgeStyle=orthogonalEdgeStyle;rounded=0;orthogonalLoop=1;jettySize=auto;html=1;exitX=1;exitY=0.5;exitDx=0;exitDy=0;entryX=0;entryY=0.5;entryDx=0;entryDy=0;" parent="1" source="AU-f3QZ6R0njnLNmo8if-32" edge="1">
          <mxGeometry relative="1" as="geometry">
            <mxPoint x="-456" y="502" as="targetPoint" />
          </mxGeometry>
        </mxCell>
        <mxCell id="AU-f3QZ6R0njnLNmo8if-51" value="No = BALK" style="edgeLabel;html=1;align=center;verticalAlign=middle;resizable=0;points=[];" parent="AU-f3QZ6R0njnLNmo8if-36" vertex="1" connectable="0">
          <mxGeometry x="-0.2324" y="1" relative="1" as="geometry">
            <mxPoint x="-10" y="-14" as="offset" />
          </mxGeometry>
        </mxCell>
        <mxCell id="AU-f3QZ6R0njnLNmo8if-32" value="Space?" style="rhombus;whiteSpace=wrap;html=1;fillColor=#e1d5e7;strokeColor=#9673a6;" parent="1" vertex="1">
          <mxGeometry x="-650" y="462" width="80" height="80" as="geometry" />
        </mxCell>
        <mxCell id="AU-f3QZ6R0njnLNmo8if-48" style="edgeStyle=orthogonalEdgeStyle;rounded=0;orthogonalLoop=1;jettySize=auto;html=1;exitX=1;exitY=0;exitDx=0;exitDy=0;entryX=1;entryY=0.5;entryDx=0;entryDy=0;curved=1;dashed=1;" parent="1" source="AU-f3QZ6R0njnLNmo8if-40" target="AU-f3QZ6R0njnLNmo8if-10" edge="1">
          <mxGeometry relative="1" as="geometry" />
        </mxCell>
        <mxCell id="AU-f3QZ6R0njnLNmo8if-49" value="RELEASE" style="edgeLabel;html=1;align=center;verticalAlign=middle;resizable=0;points=[];" parent="AU-f3QZ6R0njnLNmo8if-48" vertex="1" connectable="0">
          <mxGeometry x="0.6687" y="4" relative="1" as="geometry">
            <mxPoint x="97" y="-4" as="offset" />
          </mxGeometry>
        </mxCell>
        <mxCell id="AU-f3QZ6R0njnLNmo8if-40" value="Bed turnaround" style="rounded=0;whiteSpace=wrap;html=1;fillColor=#dae8fc;strokeColor=#6c8ebf;" parent="1" vertex="1">
          <mxGeometry x="-338.5" y="268" width="120" height="60" as="geometry" />
        </mxCell>
        <mxCell id="AU-f3QZ6R0njnLNmo8if-53" value="Unplanned queue" style="text;html=1;align=center;verticalAlign=middle;whiteSpace=wrap;rounded=0;" parent="1" vertex="1">
          <mxGeometry x="-740" y="323" width="60" height="30" as="geometry" />
        </mxCell>
        <mxCell id="GOJ1Bf2PkO9zfcrBrseA-1" value="Elective&lt;div&gt;cancellation&lt;/div&gt;" style="shape=parallelogram;perimeter=parallelogramPerimeter;whiteSpace=wrap;html=1;fixedSize=1;fillColor=light-dark(#FFE6CC,var(--ge-dark-color, #121212));strokeColor=light-dark(#D79B00,#FFFFFF);" parent="1" vertex="1">
          <mxGeometry x="-506" y="477" width="120" height="50" as="geometry" />
        </mxCell>
        <mxCell id="GOJ1Bf2PkO9zfcrBrseA-2" value="Patient&lt;div&gt;departure&lt;/div&gt;" style="shape=parallelogram;perimeter=parallelogramPerimeter;whiteSpace=wrap;html=1;fixedSize=1;fillColor=light-dark(#FFE6CC,var(--ge-dark-color, #121212));strokeColor=light-dark(#D79B00,#FFFFFF);" parent="1" vertex="1">
          <mxGeometry x="-496" y="273" width="120" height="50" as="geometry" />
        </mxCell>
        <mxCell id="GOJ1Bf2PkO9zfcrBrseA-6" value="Unplanned" style="text;html=1;align=center;verticalAlign=middle;whiteSpace=wrap;rounded=0;" parent="1" vertex="1">
          <mxGeometry x="-906" y="139" width="60" height="30" as="geometry" />
        </mxCell>
        <mxCell id="GOJ1Bf2PkO9zfcrBrseA-8" value="Planned" style="text;html=1;align=center;verticalAlign=middle;whiteSpace=wrap;rounded=0;" parent="1" vertex="1">
          <mxGeometry x="-906" y="454" width="60" height="30" as="geometry" />
        </mxCell>
        <mxCell id="9Li6UK33auU6XGVtCQIy-1" value="" style="rounded=1;whiteSpace=wrap;html=1;fillColor=light-dark(#F6F6F6,var(--ge-dark-color, #121212));strokeColor=none;" vertex="1" parent="1">
          <mxGeometry x="-290" y="370" width="160" height="172" as="geometry" />
        </mxCell>
        <mxCell id="9Li6UK33auU6XGVtCQIy-2" value="Arrival source" style="rounded=1;whiteSpace=wrap;html=1;fillColor=#d5e8d4;strokeColor=#82b366;" vertex="1" parent="1">
          <mxGeometry x="-283.5" y="404" width="70" height="35" as="geometry" />
        </mxCell>
        <mxCell id="9Li6UK33auU6XGVtCQIy-3" value="Key:" style="text;html=1;align=center;verticalAlign=middle;whiteSpace=wrap;rounded=0;" vertex="1" parent="1">
          <mxGeometry x="-240" y="378" width="60" height="20" as="geometry" />
        </mxCell>
        <mxCell id="9Li6UK33auU6XGVtCQIy-4" value="&lt;div&gt;Routing decision&lt;/div&gt;" style="rhombus;whiteSpace=wrap;html=1;fillColor=light-dark(#e1d5e7, #392f3f);strokeColor=#9673a6;" vertex="1" parent="1">
          <mxGeometry x="-250" y="445" width="80" height="45" as="geometry" />
        </mxCell>
        <mxCell id="9Li6UK33auU6XGVtCQIy-5" value="Activity" style="rounded=0;whiteSpace=wrap;html=1;fillColor=#dae8fc;strokeColor=#6c8ebf;" vertex="1" parent="1">
          <mxGeometry x="-206" y="404" width="70" height="35" as="geometry" />
        </mxCell>
        <mxCell id="9Li6UK33auU6XGVtCQIy-6" value="Departure&lt;div&gt;point&lt;/div&gt;" style="shape=parallelogram;perimeter=parallelogramPerimeter;whiteSpace=wrap;html=1;fixedSize=1;fillColor=light-dark(#FFE6CC,var(--ge-dark-color, #121212));strokeColor=light-dark(#D79B00,#FFFFFF);" vertex="1" parent="1">
          <mxGeometry x="-222" y="496" width="92" height="30" as="geometry" />
        </mxCell>
        <mxCell id="9Li6UK33auU6XGVtCQIy-7" value="Resource" style="ellipse;whiteSpace=wrap;html=1;aspect=fixed;fillColor=#f8cecc;strokeColor=#b85450;" vertex="1" parent="1">
          <mxGeometry x="-277.5" y="481.5" width="51" height="51" as="geometry" />
        </mxCell>
      </root>
    </mxGraphModel>
  </diagram>
</mxfile>
